<?xml version="1.0" standalone="no"?>
<!DOCTYPE svg PUBLIC "-//W3C//DTD SVG 20010904//EN"
 "http://www.w3.org/TR/2001/REC-SVG-20010904/DTD/svg10.dtd">
<svg version="1.0" xmlns="http://www.w3.org/2000/svg"
 width="260.000000pt" height="260.000000pt" viewBox="0 0 260.000000 260.000000"
 preserveAspectRatio="xMidYMid meet">
<metadata>
Created by potrace 1.14, written by Peter Selinger 2001-2017
</metadata>
<g transform="translate(0.000000,260.000000) scale(0.100000,-0.100000)"
fill="#000000" stroke="none">
<path d="M607 2448 c-24 -18 -27 -32 -87 -433 -28 -187 -78 -486 -111 -664
-119 -650 -159 -887 -154 -912 9 -40 44 -65 115 -82 524 -127 903 -177 1444
-193 245 -8 272 -3 294 53 25 63 178 1282 242 1921 10 107 6 134 -25 146 -26
9 -354 63 -525 85 -324 42 -681 72 -1020 86 -121 5 -159 3 -173 -7z m187 -146
c2 -4 -8 -8 -22 -7 -23 0 -27 -4 -27 -30 0 -25 4 -30 23 -29 15 0 19 -3 13 -9
-14 -14 -61 8 -61 28 0 30 20 55 45 55 13 0 26 -4 29 -8z m36 -33 c-5 -18 -7
-36 -4 -40 3 -5 -2 -9 -10 -9 -12 0 -13 6 -6 31 5 18 7 36 4 40 -3 5 2 9 10 9
12 0 13 -6 6 -31z m58 -14 c-2 -27 -8 -45 -15 -45 -7 0 -11 6 -9 13 16 49 15
66 -1 70 -14 4 -12 5 5 6 20 1 22 -3 20 -44z m60 -5 c-6 -22 -14 -40 -19 -40
-4 0 -4 14 1 31 5 18 7 36 4 40 -3 5 1 9 9 9 12 0 13 -7 5 -40z m42 36 c0 -3
-4 -8 -10 -11 -5 -3 -10 -1 -10 4 0 6 5 11 10 11 6 0 10 -2 10 -4z m40 -14 c0
-5 -12 -19 -26 -33 l-26 -24 29 -6 c26 -6 25 -7 -10 -8 -41 -1 -41 0 -2 52 20
26 35 34 35 19z m48 -3 c-10 -5 -18 -14 -18 -19 0 -6 8 -11 18 -11 16 -1 16
-2 0 -6 -26 -6 -22 -33 4 -33 12 0 19 -3 15 -6 -3 -4 -17 -4 -29 -1 -21 6 -23
11 -20 47 3 33 8 40 26 40 19 -1 19 -2 4 -11z m85 -31 l16 -33 0 33 c1 17 5
32 10 32 8 0 -4 -78 -13 -88 -2 -1 -9 11 -16 28 -7 16 -16 30 -20 30 -4 0 -10
7 -14 15 -11 30 21 14 37 -17z m1164 -45 c-3 -10 -5 -2 -5 17 0 19 2 27 5 18
2 -10 2 -26 0 -35z m-1197 17 c0 -11 -4 -20 -9 -20 -5 0 -7 9 -4 20 3 11 7 20
9 20 2 0 4 -9 4 -20z m104 4 c3 -8 2 -12 -4 -9 -6 3 -10 10 -10 16 0 14 7 11
14 -7z m50 1 c-4 -8 -8 -15 -10 -15 -2 0 -4 7 -4 15 0 8 4 15 10 15 5 0 7 -7
4 -15z m48 -22 c-3 -16 -7 -22 -10 -15 -4 13 4 42 11 42 2 0 2 -12 -1 -27z
m102 9 c3 -5 -4 -16 -15 -25 -16 -14 -19 -14 -19 -2 0 8 8 15 18 15 14 0 15 2
2 10 -9 6 -10 10 -3 10 6 0 14 -4 17 -8z m-129 -21 c-3 -6 -14 -10 -23 -10
-15 1 -15 2 1 6 9 2 17 9 17 15 0 6 3 9 6 5 3 -3 3 -10 -1 -16z m165 9 c0 -5
-2 -10 -4 -10 -3 0 -8 5 -11 10 -3 6 -1 10 4 10 6 0 11 -4 11 -10z m42 -13
c-7 -8 -9 -17 -5 -20 3 -4 -1 -7 -11 -7 -16 0 -16 2 1 24 10 13 20 22 22 20 2
-2 -1 -10 -7 -17z m58 -4 c0 -22 -2 -25 -10 -13 -9 13 -11 13 -20 0 -8 -12
-10 -9 -10 13 0 20 5 27 20 27 15 0 20 -7 20 -27z m23 -3 c-3 -12 -8 -19 -11
-16 -5 6 5 36 12 36 2 0 2 -9 -1 -20z m29 -22 c-6 -6 -12 -4 -16 7 -3 9 -2 13
4 10 6 -3 11 2 11 12 1 17 2 17 6 -1 3 -10 1 -22 -5 -28z m-850 -1 c-7 -8 -9
-17 -5 -20 3 -4 1 -7 -5 -7 -7 0 -12 2 -12 5 0 10 24 44 29 40 2 -3 -1 -11 -7
-18z m135 6 c-13 -3 -17 -11 -13 -25 3 -15 2 -18 -6 -10 -15 15 -2 42 19 41
17 -1 17 -2 0 -6z m-90 -25 c-3 -8 -6 -5 -6 6 -1 11 2 17 5 13 3 -3 4 -12 1
-19z m130 0 c-3 -8 -6 -5 -6 6 -1 11 2 17 5 13 3 -3 4 -12 1 -19z m36 2 c-3
-11 -7 -20 -9 -20 -2 0 -4 9 -4 20 0 11 4 20 9 20 5 0 7 -9 4 -20z m1334 -37
c-3 -10 -5 -2 -5 17 0 19 2 27 5 18 2 -10 2 -26 0 -35z m-1387 27 c0 -5 -5
-10 -11 -10 -5 0 -7 5 -4 10 3 6 8 10 11 10 2 0 4 -4 4 -10z m135 -51 c499
-46 1116 -116 1127 -127 14 -13 -24 -353 -42 -382 -13 -21 -561 14 -940 61
-222 27 -593 88 -604 99 -10 10 15 240 35 334 l11 49 102 -7 c55 -4 195 -16
311 -27z m805 -24 c0 -2 -6 -8 -13 -14 -10 -8 -14 -7 -14 2 0 8 6 14 14 14 7
0 13 -1 13 -2z m437 -42 c-3 -10 -5 -2 -5 17 0 19 2 27 5 18 2 -10 2 -26 0
-35z m-424 22 c-3 -9 -8 -14 -10 -11 -3 3 -2 9 2 15 9 16 15 13 8 -4z m87 0
c0 -9 -6 -12 -16 -8 -13 5 -13 7 -2 14 17 11 18 11 18 -6z m76 0 c4 -8 0 -22
-7 -31 -11 -13 -14 -13 -27 0 -17 17 -9 46 13 46 9 0 18 -7 21 -15z m251 -112
c-3 -10 -5 -2 -5 17 0 19 2 27 5 18 2 -10 2 -26 0 -35z m-10 -95 c-2 -13 -4
-5 -4 17 -1 22 1 32 4 23 2 -10 2 -28 0 -40z m-10 -95 c-3 -10 -5 -2 -5 17 0
19 2 27 5 18 2 -10 2 -26 0 -35z m-10 -80 c-3 -10 -5 -4 -5 12 0 17 2 24 5 18
2 -7 2 -21 0 -30z m-10 -75 c-3 -8 -6 -5 -6 6 -1 11 2 17 5 13 3 -3 4 -12 1
-19z m-1647 -90 c0 -7 -5 -20 -10 -28 -8 -12 -10 -9 -10 13 0 15 5 27 10 27 6
0 10 -6 10 -12z m39 -20 c0 -31 -1 -31 -10 -10 -5 13 -7 28 -3 33 10 16 14 9
13 -23z m27 17 c-3 -9 0 -15 8 -15 8 0 17 6 19 13 3 6 5 -1 5 -18 0 -16 -2
-24 -5 -17 -2 6 -11 12 -18 12 -7 0 -16 -6 -18 -12 -3 -7 -6 -1 -6 13 -1 14 2
29 6 32 11 12 15 8 9 -8z m88 -4 c4 -5 -3 -7 -14 -4 -16 4 -20 0 -20 -17 0
-17 4 -21 20 -17 11 3 18 1 14 -4 -3 -5 -14 -9 -25 -9 -13 0 -19 7 -19 23 0
13 3 27 7 30 9 10 31 9 37 -2z m-134 -21 c0 -5 -4 -10 -10 -10 -5 0 -10 5 -10
10 0 6 5 10 10 10 6 0 10 -4 10 -10z m331 -55 c-3 -5 -8 1 -10 15 -3 23 -4 24
-12 5 -7 -18 -8 -17 -8 6 -1 14 2 29 6 33 9 9 32 -46 24 -59z m39 38 c0 -10
-4 -24 -9 -31 -7 -11 -9 -11 -14 2 -7 19 1 46 14 46 5 0 9 -8 9 -17z m53 -20
c-7 -2 -21 -2 -30 0 -10 3 -4 5 12 5 17 0 24 -2 18 -5z m217 -19 c0 -8 5 -12
10 -9 6 3 10 2 10 -4 0 -21 -21 -21 -29 1 l-10 23 0 -24 c-1 -13 -4 -22 -7
-18 -10 10 5 58 16 52 6 -3 10 -13 10 -21z m39 -6 c0 -31 -1 -31 -10 -10 -5
13 -7 28 -3 33 10 16 14 9 13 -23z m48 -13 c-8 -9 -15 -9 -23 -1 -9 8 -9 12 2
14 8 2 14 9 14 15 0 8 4 7 9 -2 6 -9 5 -19 -2 -26z m285 -5 c4 -3 -2 -11 -13
-19 -12 -7 -18 -8 -14 -2 3 6 -2 12 -12 12 -17 1 -17 2 0 6 9 2 17 9 17 15 0
7 3 7 8 2 4 -5 10 -11 14 -14z m383 4 c17 -3 32 -10 34 -16 2 -6 7 -5 12 3 6
11 13 11 26 3 14 -9 17 -22 15 -65 -2 -30 -8 -58 -13 -63 -9 -10 -209 6 -228
18 -11 7 -8 107 4 126 7 12 65 9 150 -6z m-334 -11 c-17 -29 -51 -69 -51 -60
0 9 50 77 57 77 2 0 -1 -8 -6 -17z m29 -53 c18 -12 2 -12 -25 0 -13 6 -15 9
-5 9 8 0 22 -4 30 -9z m-1040 -30 c0 -4 -9 -15 -20 -25 -11 -10 -22 -26 -25
-36 -4 -11 -11 -19 -16 -19 -16 0 -10 17 17 49 l26 31 -27 0 c-14 0 -24 4 -21
8 6 10 66 3 66 -8z m304 -28 c10 -17 -10 -77 -28 -80 -28 -6 -38 12 -31 52 6
29 12 36 31 36 12 0 25 -3 28 -8z m320 -45 c17 -26 -4 -72 -33 -72 -14 0 -27
7 -29 15 -4 13 -3 13 11 2 9 -8 21 -11 27 -7 8 5 4 11 -11 19 -30 15 -34 30
-13 50 19 19 33 17 48 -7z m319 -42 c7 -18 -9 -29 -30 -21 -12 5 -13 9 -3 21
16 19 26 19 33 0z m16 -34 c-12 -17 -24 -29 -27 -27 -2 3 6 18 19 35 12 17 24
29 27 27 2 -3 -6 -18 -19 -35z m19 -13 c-2 -7 3 -12 10 -10 8 1 11 -2 7 -8 -5
-8 -11 -8 -21 1 -7 6 -11 15 -8 20 8 13 14 11 12 -3z m362 -18 c8 -5 7 -9 -4
-13 -16 -6 -115 8 -124 18 -8 8 115 3 128 -5z m-1398 -53 c2 -20 -2 -39 -9
-46 -10 -9 -13 -8 -13 4 0 8 -9 15 -20 15 -26 0 -25 8 2 37 29 31 35 29 40
-10z m328 -6 c0 -5 -9 -7 -20 -4 -11 3 -20 0 -20 -6 0 -6 6 -11 14 -11 20 0
29 -16 21 -41 -8 -24 -55 -23 -63 1 -5 13 -3 13 11 2 18 -16 37 -8 37 15 0 10
-6 14 -20 10 -14 -4 -20 0 -20 12 0 10 3 21 7 24 10 10 53 8 53 -2z m317 -73
c-2 -39 -5 -43 -29 -46 -32 -4 -44 22 -29 62 8 18 18 26 35 26 23 0 25 -3 23
-42z m358 -18 c8 7 15 8 15 2 0 -5 -8 -13 -17 -16 -12 -5 -14 -9 -5 -18 7 -7
12 -17 12 -22 0 -6 -7 -2 -15 8 -12 16 -18 17 -27 8 -7 -7 -17 -12 -22 -12 -6
0 -2 7 8 15 16 12 17 18 8 27 -20 20 -13 32 8 13 16 -15 22 -15 35 -5z m320
-60 l30 -8 -35 -1 c-19 0 -42 4 -50 9 -12 8 -11 10 5 9 11 -1 34 -5 50 -9z
m-1372 -57 c-3 -21 -10 -42 -15 -48 -7 -7 -9 1 -6 23 3 18 0 35 -5 39 -5 3 -3
9 4 14 24 15 28 10 22 -28z m345 -20 c3 -17 -4 -26 -25 -35 -27 -11 -27 -12
-5 -15 12 -3 22 -9 22 -14 0 -10 -15 -11 -48 -3 -18 5 -20 9 -10 21 7 8 22 19
35 24 31 12 30 33 -2 27 -24 -5 -32 2 -18 16 15 15 48 1 51 -21z m319 -55 c2
-40 -15 -62 -44 -56 -10 2 -19 11 -21 21 -3 16 -1 17 17 5 25 -15 39 -4 21 17
-8 10 -9 15 -1 15 6 0 11 5 11 11 0 6 -9 8 -20 4 -11 -3 -20 -2 -20 3 0 15 13
23 35 20 15 -2 20 -11 22 -40z m698 -88 c18 -8 18 -9 -5 -8 -14 0 -38 4 -55 8
l-30 8 35 0 c19 0 44 -3 55 -8z m-1382 -23 c7 -19 -3 -65 -18 -77 -31 -26 -63
18 -46 64 11 28 55 37 64 13z m993 -12 c-4 -10 2 -19 17 -25 l22 -9 -22 0
c-16 -1 -23 -7 -23 -21 0 -11 -5 -20 -11 -20 -6 0 -8 8 -4 19 4 13 -1 21 -17
26 l-23 8 23 4 c12 2 22 11 22 19 0 8 5 14 11 14 6 0 8 -7 5 -15z m-708 -40
c4 -41 -21 -74 -45 -59 -38 23 -22 98 20 92 16 -2 23 -11 25 -33z m80 -6 c2
-14 -5 -36 -15 -48 -24 -29 -53 -19 -53 19 0 47 10 61 39 58 20 -2 27 -9 29
-29z m270 -50 c-2 -6 -8 -10 -13 -10 -5 0 -11 4 -13 10 -2 6 4 11 13 11 9 0
15 -5 13 -11z m712 -69 c24 -8 24 -8 -5 -8 -16 0 -41 4 -55 8 -24 8 -24 8 5 8
17 0 41 -4 55 -8z m7 -33 c4 -6 -2 -8 -18 -4 -13 4 -34 7 -46 7 -13 0 -23 3
-23 8 0 11 79 2 87 -11z"/>
<path d="M695 2058 c-2 -7 -11 -67 -20 -133 -8 -66 -18 -132 -21 -147 -4 -21
-2 -28 10 -28 9 0 17 3 17 8 1 4 3 21 5 37 9 89 13 95 49 95 26 0 33 3 29 15
-4 8 -10 13 -14 10 -12 -7 -40 5 -40 17 0 6 14 8 31 6 25 -4 32 -1 40 19 15
40 11 56 -11 50 -20 -5 -48 17 -32 27 16 10 94 -1 103 -15 6 -10 9 -11 9 -1 0
6 7 12 17 12 15 0 15 -2 1 -17 -14 -17 -25 -50 -33 -106 -2 -12 -8 -38 -14
-57 -16 -50 -14 -100 3 -100 8 0 17 8 19 18 4 13 5 13 6 -4 1 -19 32 -34 72
-34 18 0 8 32 -12 37 -14 4 -18 11 -14 22 4 9 9 28 12 44 4 20 11 27 28 27 12
0 29 8 37 18 19 22 42 107 33 121 -3 6 -1 11 4 11 6 0 11 -12 12 -27 0 -16 3
-23 5 -17 6 13 44 7 44 -7 0 -5 -4 -9 -9 -9 -6 0 -9 -12 -8 -27 1 -19 -3 -28
-13 -29 -8 -1 -21 -2 -27 -3 -21 -2 -15 -29 7 -36 21 -7 23 -16 14 -63 -5 -26
-11 -30 -35 -30 -16 1 -32 -2 -36 -5 -13 -14 21 -37 53 -37 27 0 36 5 43 23
18 46 31 94 31 110 0 21 16 22 24 2 3 -8 14 -15 24 -15 18 0 18 -4 9 -50 -10
-50 -4 -86 12 -76 9 6 44 108 44 130 0 9 11 6 32 -8 18 -12 28 -23 24 -24 -5
-2 -6 -8 -3 -13 3 -6 3 -21 0 -35 -5 -20 -13 -24 -42 -24 -28 0 -35 -3 -32
-17 3 -15 14 -18 58 -18 30 0 57 -3 60 -6 8 -11 74 -19 86 -11 6 4 13 15 17
25 3 9 11 17 16 17 6 0 8 -8 5 -17 -4 -11 -3 -14 3 -7 14 19 41 12 48 -14 4
-16 11 -22 20 -18 8 3 15 2 15 -3 0 -8 2 -9 65 -16 22 -3 148 -18 280 -34 132
-15 243 -25 247 -22 12 12 45 323 34 327 -19 6 -1364 144 -1410 144 -15 0 -28
-6 -31 -12z m259 -116 c-8 -33 -25 -52 -31 -35 -2 7 -14 2 -30 -13 -14 -13
-29 -22 -32 -19 -3 4 0 10 8 14 7 5 12 12 11 17 0 5 4 28 10 52 l10 42 30 -15
c26 -13 29 -20 24 -43z m228 26 c-7 -7 -12 -29 -12 -50 0 -25 -5 -38 -14 -38
-24 0 9 99 34 100 2 0 -1 -5 -8 -12z m118 -52 c0 -2 -7 -7 -16 -10 -8 -3 -12
-2 -9 4 6 10 25 14 25 6z m27 -26 c1 -11 -2 -18 -8 -15 -5 4 -12 -1 -15 -9 -5
-13 -8 -13 -20 -1 -18 17 -18 31 -1 17 10 -8 16 -6 25 9 15 24 17 24 19 -1z
m108 -60 c3 -5 1 -10 -4 -10 -6 0 -11 5 -11 10 0 6 2 10 4 10 3 0 8 -4 11 -10z
m33 -57 c8 -23 7 -33 -1 -36 -8 -3 -13 9 -13 35 -2 44 -1 45 14 1z m-25 14 c3
-8 1 -20 -4 -28 -6 -10 -9 -7 -9 14 0 29 5 35 13 14z m-74 -9 c-1 -7 -5 -24
-9 -38 -7 -22 -8 -21 -9 13 -1 20 4 37 9 37 6 0 10 -6 9 -12z"/>
<path d="M2083 1345 c0 -8 4 -15 9 -15 4 0 8 4 8 9 0 6 -4 12 -8 15 -5 3 -9
-1 -9 -9z"/>
<path d="M1990 1286 c0 -2 7 -7 16 -10 8 -3 12 -2 9 4 -6 10 -25 14 -25 6z"/>
<path d="M945 1241 c-6 -11 9 -23 19 -14 9 9 7 23 -3 23 -6 0 -12 -4 -16 -9z"/>
<path d="M935 1201 c-3 -5 -1 -12 5 -16 12 -7 30 2 30 16 0 12 -27 12 -35 0z"/>
<path d="M1260 1195 c0 -8 7 -15 15 -15 8 0 15 7 15 15 0 8 -7 15 -15 15 -8 0
-15 -7 -15 -15z"/>
<path d="M1595 1160 c-3 -5 1 -10 10 -10 9 0 13 5 10 10 -3 6 -8 10 -10 10 -2
0 -7 -4 -10 -10z"/>
<path d="M585 1040 c-3 -5 -1 -10 4 -10 6 0 11 5 11 10 0 6 -2 10 -4 10 -3 0
-8 -4 -11 -10z"/>
<path d="M1230 990 c0 -5 7 -10 15 -10 8 0 15 5 15 10 0 6 -7 10 -15 10 -8 0
-15 -4 -15 -10z"/>
<path d="M1226 963 c-12 -12 -6 -33 9 -33 8 0 15 6 15 14 0 17 -14 28 -24 19z"/>
<path d="M506 634 c-11 -28 -6 -54 9 -54 16 0 31 43 20 59 -9 16 -22 13 -29
-5z"/>
<path d="M797 613 c-14 -13 -7 -63 8 -63 10 0 15 11 15 35 0 33 -8 43 -23 28z"/>
<path d="M868 585 c-9 -20 -9 -28 1 -38 15 -15 31 6 31 41 0 30 -18 28 -32 -3z"/>
</g>
</svg>
